<svg width="170" height="35" viewBox="0 0 170 35" fill="none" xmlns="http://www.w3.org/2000/svg">
<path d="M9.1122 32.5945C5.89065 30.7626 5.63798 26.3409 7.53301 23.1193L7.65934 22.3613H22.1248L18.1452 29.2466C16.2502 32.4682 12.3338 34.4264 9.1122 32.5945Z" fill="#5065A7"/>
<path d="M27.494 0.757982C30.7156 2.58985 30.9682 7.01159 29.0732 10.2331L28.6942 10.9912H14.4814L18.461 4.10587C20.356 0.884318 24.3356 -1.07388 27.494 0.757982Z" fill="#5576AA"/>
<path d="M28.6311 10.9912L18.1452 29.2467C16.8187 31.5839 14.3551 33.2894 11.8916 33.2894L24.7778 33.3526C26.736 33.3526 28.5679 32.3419 29.5154 30.6364L34.632 21.7929L28.6311 10.9912Z" fill="#9FD0DB"/>
<path d="M0.710637 19.3925C-0.236879 17.687 -0.236879 15.6024 0.710637 13.8969L7.15375 2.71621C8.16443 1.01068 9.93313 0 11.8913 0L24.7776 0.0631678C22.314 0.126336 19.8505 1.7687 18.5239 4.10591L7.53276 23.1194C6.20623 25.4566 5.95356 28.4255 7.15375 30.5732L0.710637 19.3925Z" fill="#6EABE1"/>
<path d="M69.6271 15.9182V17.4342C69.6271 20.2136 68.7427 22.4877 66.9109 24.2564C65.079 26.0251 62.805 26.8462 59.9624 26.8462C56.9304 26.8462 54.4036 25.8356 52.4454 23.8774C50.4241 21.856 49.4766 19.4556 49.4766 16.6131C49.4766 13.7705 50.4872 11.3701 52.4454 9.34877C54.4668 7.3274 56.8672 6.37988 59.7729 6.37988C63.4366 6.37988 66.6582 8.14858 68.3006 10.928L65.0158 12.823C64.0683 11.2438 62.0469 10.1068 59.7729 10.1068C57.8779 10.1068 56.3618 10.7385 55.1617 11.9386C53.9615 13.1388 53.393 14.718 53.393 16.5499C53.393 18.3818 54.0246 19.961 55.2248 21.1611C56.4882 22.3613 58.0674 22.9298 60.0887 22.9298C63.1208 22.9298 65.079 21.5401 65.837 19.2029H59.8992V15.7919H69.6271V15.9182Z" fill="#6EABE1"/>
<path d="M78.9131 26.8462C76.8286 26.8462 75.0599 26.1514 73.6702 24.6985C72.2805 23.2456 71.5225 21.4769 71.5225 19.4556C71.5225 17.4342 72.2173 15.6655 73.6702 14.2126C75.123 12.7598 76.8917 12.0649 78.9131 12.0649C80.9976 12.0649 82.7663 12.823 84.156 14.2126C85.5457 15.6023 86.3037 17.371 86.3037 19.4556C86.3037 21.5401 85.5457 23.3088 84.156 24.6985C82.7663 26.0882 80.9976 26.8462 78.9131 26.8462ZM78.9131 23.3088C79.9869 23.3088 80.9345 22.9298 81.6293 22.235C82.3241 21.5401 82.7032 20.5926 82.7032 19.4556C82.7032 18.3185 82.3241 17.4342 81.6293 16.6762C80.8713 15.9182 79.9869 15.6023 78.9131 15.6023C77.8392 15.6023 76.8917 15.9813 76.1969 16.6762C75.502 17.4342 75.123 18.3185 75.123 19.4556C75.123 20.5926 75.502 21.4769 76.1969 22.235C76.8917 22.993 77.8392 23.3088 78.9131 23.3088Z" fill="#6EABE1"/>
<path d="M96.4105 6.82202C98.3055 6.82202 99.8847 7.4537 101.148 8.71705C102.411 9.98041 103.106 11.5596 103.106 13.3915C103.106 15.2233 102.475 16.8025 101.148 18.0659C99.8847 19.3292 98.2423 19.9609 96.4105 19.9609H92.9362V26.404H89.083V6.82202H96.4105ZM96.4105 16.4235C98.0528 16.4235 99.253 15.1602 99.253 13.4546C99.253 11.7491 98.0528 10.4858 96.4105 10.4858H92.9362V16.4235H96.4105Z" fill="#5065A7"/>
<path d="M117.066 13.581C118.077 14.5917 118.582 16.0445 118.582 17.8132V26.404H114.919V18.3186C114.919 16.4235 113.845 15.4128 112.139 15.4128C110.244 15.4128 109.044 16.5499 109.044 18.8871V26.4672H105.443V6.82202H109.044V14.0231C109.928 12.6966 111.318 12.0649 113.213 12.0649C114.792 12.0649 116.056 12.5703 117.066 13.581Z" fill="#5065A7"/>
<path d="M132.289 12.4439H135.89V26.4672H132.289V24.8248C131.215 26.2145 129.699 26.8462 127.741 26.8462C125.846 26.8462 124.267 26.1514 122.94 24.6985C121.614 23.2456 120.919 21.4769 120.919 19.4556C120.919 17.4342 121.614 15.6655 122.94 14.2126C124.267 12.7598 125.909 12.0649 127.741 12.0649C129.699 12.0649 131.215 12.7598 132.289 14.0863V12.4439ZM128.373 23.4351C129.51 23.4351 130.394 23.0561 131.152 22.3613C131.91 21.6033 132.289 20.6558 132.289 19.5187C132.289 18.3817 131.91 17.4342 131.152 16.6762C130.394 15.9182 129.51 15.5392 128.373 15.5392C127.236 15.5392 126.351 15.9182 125.593 16.6762C124.835 17.4342 124.52 18.3817 124.52 19.5187C124.52 20.6558 124.899 21.6033 125.593 22.3613C126.351 23.0561 127.299 23.4351 128.373 23.4351Z" fill="#5065A7"/>
<path d="M142.838 14.8444C143.533 13.0757 145.175 12.1282 147.07 12.1282V16.1709C145.996 16.0446 144.986 16.2341 144.101 16.8658C143.217 17.4343 142.838 18.3818 142.838 19.7715V26.4673H139.237V12.444H142.838V14.8444Z" fill="#5065A7"/>
<path d="M170 17.8132V26.4672H166.4V18.0659C166.4 16.3603 165.515 15.4128 164.063 15.4128C162.42 15.4128 161.473 16.5499 161.473 18.5712V26.4672H157.872V18.0659C157.872 16.3603 156.988 15.4128 155.535 15.4128C153.956 15.4128 152.882 16.5499 152.882 18.5712V26.4672H149.281V12.4439H152.882V13.96C153.703 12.6966 155.03 12.0649 156.798 12.0649C158.504 12.0649 159.83 12.7598 160.588 14.0863C161.536 12.7598 162.925 12.0649 164.757 12.0649C167.916 12.0649 170 14.339 170 17.8132Z" fill="#5065A7"/>
<path d="M108.052 29.8354H108.624V33.1838H108.052V30.7422L106.507 33.1838H105.935V29.8354H106.507V32.2802L108.052 29.8354ZM112.279 33.1838H111.706V31.7541H110.168V33.1838H109.593V29.8354H110.168V31.2868H111.706V29.8354H112.279V33.1838ZM115.689 30.2996H114.566V33.1838H113.993V30.2996H112.892V29.8354H115.689V30.2996ZM117.388 33.2457C116.934 33.2457 116.565 33.0972 116.28 32.8001C115.996 32.501 115.853 32.1017 115.853 31.6025V31.4973C115.853 31.1651 115.916 30.8691 116.042 30.6091C116.17 30.3471 116.347 30.1428 116.574 29.9964C116.803 29.8478 117.051 29.7736 117.317 29.7736C117.752 29.7736 118.091 29.9169 118.332 30.2037C118.573 30.4905 118.694 30.901 118.694 31.4354V31.6737H116.426C116.434 32.0038 116.53 32.2709 116.714 32.4752C116.899 32.6773 117.134 32.7784 117.419 32.7784C117.621 32.7784 117.793 32.7372 117.933 32.6547C118.073 32.5721 118.196 32.4628 118.301 32.3266L118.651 32.599C118.37 33.0301 117.949 33.2457 117.388 33.2457ZM117.317 30.2439C117.086 30.2439 116.892 30.3285 116.735 30.4977C116.578 30.6648 116.481 30.9 116.444 31.2033H118.122V31.1599C118.105 30.8691 118.027 30.6442 117.886 30.4853C117.746 30.3244 117.556 30.2439 117.317 30.2439ZM122.188 31.5468C122.188 32.0564 122.071 32.4669 121.838 32.7784C121.605 33.09 121.289 33.2457 120.891 33.2457C120.485 33.2457 120.165 33.1168 119.932 32.8589V34.4712H119.359V29.8354H119.882L119.91 30.2068C120.143 29.918 120.467 29.7736 120.882 29.7736C121.284 29.7736 121.602 29.9252 121.835 30.2285C122.07 30.5317 122.188 30.9536 122.188 31.4942V31.5468ZM121.615 31.4818C121.615 31.1042 121.535 30.8061 121.374 30.5874C121.213 30.3688 120.992 30.2594 120.712 30.2594C120.365 30.2594 120.105 30.4131 119.932 30.7205V32.3204C120.103 32.6258 120.365 32.7784 120.718 32.7784C120.992 32.7784 121.21 32.6701 121.371 32.4535C121.534 32.2348 121.615 31.9109 121.615 31.4818ZM125.654 33.1838H125.081V31.7541H123.543V33.1838H122.968V29.8354H123.543V31.2868H125.081V29.8354H125.654V33.1838ZM127.966 33.2457C127.512 33.2457 127.142 33.0972 126.858 32.8001C126.573 32.501 126.431 32.1017 126.431 31.6025V31.4973C126.431 31.1651 126.494 30.8691 126.619 30.6091C126.747 30.3471 126.925 30.1428 127.152 29.9964C127.381 29.8478 127.628 29.7736 127.894 29.7736C128.33 29.7736 128.668 29.9169 128.909 30.2037C129.151 30.4905 129.272 30.901 129.272 31.4354V31.6737H127.003C127.011 32.0038 127.107 32.2709 127.291 32.4752C127.477 32.6773 127.712 32.7784 127.997 32.7784C128.199 32.7784 128.37 32.7372 128.51 32.6547C128.651 32.5721 128.773 32.4628 128.879 32.3266L129.228 32.599C128.948 33.0301 128.527 33.2457 127.966 33.2457ZM127.894 30.2439C127.663 30.2439 127.469 30.3285 127.313 30.4977C127.156 30.6648 127.059 30.9 127.022 31.2033H128.699V31.1599C128.683 30.8691 128.604 30.6442 128.464 30.4853C128.324 30.3244 128.134 30.2439 127.894 30.2439ZM132.388 30.2996H131.264V33.1838H130.692V30.2996H129.59V29.8354H132.388V30.2996ZM136.584 33.1838C136.551 33.1178 136.524 33.0002 136.504 32.831C136.238 33.1075 135.92 33.2457 135.551 33.2457C135.22 33.2457 134.949 33.1529 134.737 32.9672C134.526 32.7795 134.421 32.5422 134.421 32.2554C134.421 31.9068 134.553 31.6365 134.817 31.4447C135.083 31.2507 135.457 31.1538 135.937 31.1538H136.494V30.8907C136.494 30.6906 136.435 30.5317 136.315 30.4141C136.195 30.2945 136.019 30.2347 135.786 30.2347C135.582 30.2347 135.41 30.2862 135.272 30.3894C135.134 30.4925 135.065 30.6174 135.065 30.7638H134.489C134.489 30.5967 134.548 30.4358 134.665 30.2811C134.785 30.1243 134.946 30.0005 135.148 29.9097C135.353 29.8189 135.576 29.7736 135.82 29.7736C136.206 29.7736 136.508 29.8705 136.727 30.0644C136.945 30.2563 137.059 30.5214 137.067 30.8598V32.4009C137.067 32.7083 137.106 32.9528 137.185 33.1343V33.1838H136.584ZM135.634 32.7475C135.814 32.7475 135.984 32.7011 136.145 32.6082C136.306 32.5154 136.422 32.3947 136.494 32.2462V31.5592H136.046C135.344 31.5592 134.994 31.7644 134.994 32.175C134.994 32.3545 135.053 32.4948 135.173 32.5959C135.293 32.6969 135.446 32.7475 135.634 32.7475ZM140.703 33.1838H140.131V30.3089H138.589V33.1838H138.014V29.8354H140.703V33.1838ZM144.11 30.2996H142.987V33.1838H142.414V30.2996H141.313V29.8354H144.11V30.2996ZM145.809 33.2457C145.355 33.2457 144.986 33.0972 144.701 32.8001C144.417 32.501 144.274 32.1017 144.274 31.6025V31.4973C144.274 31.1651 144.337 30.8691 144.463 30.6091C144.591 30.3471 144.768 30.1428 144.995 29.9964C145.224 29.8478 145.472 29.7736 145.738 29.7736C146.173 29.7736 146.512 29.9169 146.753 30.2037C146.995 30.4905 147.115 30.901 147.115 31.4354V31.6737H144.847C144.855 32.0038 144.951 32.2709 145.135 32.4752C145.32 32.6773 145.556 32.7784 145.84 32.7784C146.042 32.7784 146.214 32.7372 146.354 32.6547C146.494 32.5721 146.617 32.4628 146.722 32.3266L147.072 32.599C146.791 33.0301 146.37 33.2457 145.809 33.2457ZM145.738 30.2439C145.507 30.2439 145.313 30.3285 145.156 30.4977C145 30.6648 144.903 30.9 144.865 31.2033H146.543V31.1599C146.526 30.8691 146.448 30.6442 146.308 30.4853C146.167 30.3244 145.977 30.2439 145.738 30.2439ZM148.823 31.7572H148.406V33.1838H147.83V29.8354H148.406V31.2528H148.78L149.907 29.8354H150.6L149.275 31.4447L150.711 33.1838H149.984L148.823 31.7572ZM153.27 33.1838C153.237 33.1178 153.211 33.0002 153.19 32.831C152.924 33.1075 152.606 33.2457 152.237 33.2457C151.907 33.2457 151.635 33.1529 151.423 32.9672C151.213 32.7795 151.107 32.5422 151.107 32.2554C151.107 31.9068 151.239 31.6365 151.503 31.4447C151.77 31.2507 152.143 31.1538 152.624 31.1538H153.181V30.8907C153.181 30.6906 153.121 30.5317 153.001 30.4141C152.882 30.2945 152.705 30.2347 152.472 30.2347C152.268 30.2347 152.097 30.2862 151.958 30.3894C151.82 30.4925 151.751 30.6174 151.751 30.7638H151.175C151.175 30.5967 151.234 30.4358 151.352 30.2811C151.471 30.1243 151.632 30.0005 151.835 29.9097C152.039 29.8189 152.263 29.7736 152.506 29.7736C152.892 29.7736 153.194 29.8705 153.413 30.0644C153.631 30.2563 153.745 30.5214 153.753 30.8598V32.4009C153.753 32.7083 153.792 32.9528 153.871 33.1343V33.1838H153.27ZM152.32 32.7475C152.5 32.7475 152.67 32.7011 152.831 32.6082C152.992 32.5154 153.108 32.3947 153.181 32.2462V31.5592H152.732C152.031 31.5592 151.68 31.7644 151.68 32.175C151.68 32.3545 151.74 32.4948 151.859 32.5959C151.979 32.6969 152.133 32.7475 152.32 32.7475Z" fill="#5065A7"/>
</svg>
